<?xml version="1.0" encoding="UTF-8" standalone="no"?>
<svg
   xmlns:dc="http://purl.org/dc/elements/1.1/"
   xmlns:cc="http://creativecommons.org/ns#"
   xmlns:rdf="http://www.w3.org/1999/02/22-rdf-syntax-ns#"
   xmlns:svg="http://www.w3.org/2000/svg"
   xmlns="http://www.w3.org/2000/svg"
   xmlns:sodipodi="http://sodipodi.sourceforge.net/DTD/sodipodi-0.dtd"
   xmlns:inkscape="http://www.inkscape.org/namespaces/inkscape"
   width="1000"
   height="670"
   viewBox="0 0 264.58331 177.27084"
   version="1.1"
   id="svg1141"
   inkscape:version="1.0.2 (e86c870879, 2021-01-15, custom)"
   sodipodi:docname="Footbal_SVG.svg">
  <defs
     id="defs1135">
    <radialGradient
       id="SVGID_1_"
       cx="122.43"
       cy="134.09"
       r="228.96001"
       gradientTransform="matrix(0.7816,-0.6237,-0.6237,-0.7816,114.77,390.03)"
       gradientUnits="userSpaceOnUse">
      <stop
         stop-color="#ad6913"
         offset="0"
         id="stop215" />
      <stop
         stop-color="#6b3300"
         offset="1"
         id="stop217" />
    </radialGradient>
    <radialGradient
       id="SVGID_2_"
       cx="137.28999"
       cy="112.12"
       r="233.50999"
       gradientTransform="matrix(0.7816,-0.6237,-0.6237,-0.7816,114.77,390.03)"
       gradientUnits="userSpaceOnUse">
      <stop
         stop-color="#945613"
         offset="0"
         id="stop222" />
      <stop
         stop-color="#713803"
         offset=".8648"
         id="stop224" />
      <stop
         stop-color="#6b3300"
         offset="1"
         id="stop226" />
    </radialGradient>
    <radialGradient
       id="SVGID_3_"
       cx="166.37"
       cy="76.278999"
       r="198.57001"
       gradientTransform="matrix(0.7816,-0.6237,-0.4444,-0.5569,63.27,325.49)"
       gradientUnits="userSpaceOnUse">
      <stop
         stop-color="#3f1c04"
         offset=".6762"
         id="stop231" />
      <stop
         stop-color="#3f1c04"
         offset="1"
         id="stop233" />
    </radialGradient>
  </defs>
  <sodipodi:namedview
     id="base"
     pagecolor="#ffffff"
     bordercolor="#666666"
     borderopacity="1.0"
     inkscape:pageopacity="0.0"
     inkscape:pageshadow="2"
     inkscape:zoom="0.35"
     inkscape:cx="400.00002"
     inkscape:cy="560.00001"
     inkscape:document-units="px"
     inkscape:current-layer="layer1"
     inkscape:document-rotation="0"
     showgrid="false"
     fit-margin-top="0"
     fit-margin-left="0"
     fit-margin-right="0"
     fit-margin-bottom="0"
     units="px"
     inkscape:window-width="1267"
     inkscape:window-height="1032"
     inkscape:window-x="26"
     inkscape:window-y="0"
     inkscape:window-maximized="0" />
  <metadata
     id="metadata1138">
    <rdf:RDF>
      <cc:Work
         rdf:about="">
        <dc:format>image/svg+xml</dc:format>
        <dc:type
           rdf:resource="http://purl.org/dc/dcmitype/StillImage" />
        <dc:title></dc:title>
      </cc:Work>
    </rdf:RDF>
  </metadata>
  <g
     inkscape:label="Layer 1"
     inkscape:groupmode="layer"
     id="layer1">
    <g
       transform="matrix(0.72750121,0.18955522,-0.18982474,0.72646824,34.651519,-101.07959)"
       id="g276">
      <path
         d="m 335.99,92.777 c -0.029,0.042 -0.063,0.088 -0.092,0.131 -0.137,0.197 -0.285,0.407 -0.445,0.638 0.077,-0.388 0.087,-0.714 0.038,-0.986 -0.302,-0.237 -0.628,-0.447 -0.967,-0.644 l -0.002,0.001 0.002,-0.001 c -0.156,-0.091 -0.313,-0.181 -0.476,-0.263 -0.996,-0.497 -2.14,-0.839 -3.449,-1.001 -60.661,-7.506 -139.51,25.151 -197.42,75.555 -31.051,27.024 -56.603,58.599 -72.693,92.04 -6.237,12.963 -25.525,52.888 -20.728,68.303 0.204,0.655 0.457,1.262 0.75,1.826 l 0.132,-0.067 c 0.031,-0.027 0.154,-0.058 0.385,-0.121 -0.261,0.089 -0.385,0.121 -0.385,0.121 -0.047,0.038 -0.074,0.086 -0.092,0.142 l 0.389,0.659 c 0.539,0.828 1.193,1.535 1.987,2.091 0.014,0.01 0.026,0.019 0.041,0.028 0.878,0.605 1.918,1.039 3.135,1.274 3.201,0.619 6.486,1.084 9.834,1.416 26.816,2.661 58.064,-3.678 89.24,-15.878 37.192,-14.294 74.202,-36.783 103.67,-62.707 31.429,-27.646 57.559,-60.741 73.376,-94.777 6.589,-14.181 24.833,-54.212 15.212,-66.257 -0.308,-0.384 -0.88,-1.002 -1.44,-1.523 z"
         fill="#5e2b08"
         id="path213" />
      <radialGradient
         id="radialGradient1096"
         cx="122.43"
         cy="134.09"
         r="228.96001"
         gradientTransform="matrix(0.7816,-0.6237,-0.6237,-0.7816,114.77,390.03)"
         gradientUnits="userSpaceOnUse">
        <stop
           stop-color="#ad6913"
           offset="0"
           id="stop1092" />
        <stop
           stop-color="#6b3300"
           offset="1"
           id="stop1094" />
      </radialGradient>
      <path
         d="m 333.53,89.469 c -1.323,-0.902 -2.783,-1.638 -4.401,-2.177 -74.907,-25.008 -161.7,-1.637 -218.87,50.334 -30.65,27.865 -53.545,63.096 -64.582,103.14 -4.278,15.523 -17.552,63.313 -7.934,84.817 5.168,-0.761 35.74,-9.521 157.59,-106.75 117.47,-93.737 135.73,-124.22 138.2,-129.36 z"
         fill="url(#SVGID_1_)"
         id="path220"
         style="fill:url(#SVGID_1_)" />
      <radialGradient
         id="radialGradient1105"
         cx="137.28999"
         cy="112.12"
         r="233.50999"
         gradientTransform="matrix(0.7816,-0.6237,-0.6237,-0.7816,114.77,390.03)"
         gradientUnits="userSpaceOnUse">
        <stop
           stop-color="#945613"
           offset="0"
           id="stop1099" />
        <stop
           stop-color="#713803"
           offset=".8648"
           id="stop1101" />
        <stop
           stop-color="#6b3300"
           offset="1"
           id="stop1103" />
      </radialGradient>
      <path
         d="m 336.15,91.435 c -0.025,0.048 -0.054,0.101 -0.079,0.15 -0.116,0.224 -0.241,0.465 -0.378,0.729 -5.336,10.288 -28.081,49.572 -134.2,134.25 -131.24,104.73 -158.64,103.45 -161.7,102.69 0.854,1.226 1.818,2.318 2.913,3.249 0.019,0.015 0.037,0.031 0.055,0.046 1.21,1.019 2.569,1.849 4.093,2.461 4.01,1.615 8.081,3.045 12.195,4.317 32.951,10.189 68.995,9.629 103.49,1.324 41.218,-9.561 80.173,-29.967 109.19,-56.773 30.948,-28.59 54.162,-65.679 64.723,-106.58 4.398,-17.042 16.387,-65.232 1.801,-83.501 -0.466,-0.583 -1.311,-1.541 -2.113,-2.364 z"
         fill="url(#SVGID_2_)"
         id="path229"
         style="fill:url(#SVGID_2_)" />
      <radialGradient
         id="radialGradient1112"
         cx="166.37"
         cy="76.278999"
         r="198.57001"
         gradientTransform="matrix(0.7816,-0.6237,-0.4444,-0.5569,63.27,325.49)"
         gradientUnits="userSpaceOnUse">
        <stop
           stop-color="#3f1c04"
           offset=".6762"
           id="stop1108" />
        <stop
           stop-color="#3f1c04"
           offset="1"
           id="stop1110" />
      </radialGradient>
      <path
         d="m 336.15,91.435 c -0.025,0.048 -0.054,0.101 -0.079,0.15 -0.116,0.224 -0.241,0.465 -0.378,0.729 -5.336,10.288 -28.081,49.572 -134.2,134.25 -131.24,104.73 -158.64,103.45 -161.7,102.69 0.854,1.226 1.818,2.318 2.913,3.249 0.019,0.015 0.037,0.031 0.055,0.046 1.21,1.019 2.569,1.849 4.093,2.461 4.01,1.615 8.081,3.045 12.195,4.317 32.951,10.189 68.995,9.629 103.49,1.324 41.218,-9.561 80.173,-29.967 109.19,-56.773 30.948,-28.59 54.162,-65.679 64.723,-106.58 4.398,-17.042 16.387,-65.232 1.801,-83.501 -0.466,-0.583 -1.311,-1.541 -2.113,-2.364 z"
         fill="url(#SVGID_3_)"
         id="path236"
         style="fill:url(#SVGID_3_)" />
      <path
         d="m 334.17,89.935 -0.002,0.001 c 0,0 -17.104,38.537 -135.53,133.04 -120.02,95.772 -154.85,104.37 -158.96,105.09 -0.293,0.051 -0.435,0.063 -0.435,0.063 -0.046,0.039 -0.066,0.096 -0.075,0.163 l 0.633,0.966 c 3.059,0.76 30.455,2.036 161.7,-102.69 106.11,-84.678 128.86,-123.96 134.2,-134.25 -0.004,-0.492 -0.073,-0.92 -0.2,-1.289 -0.422,-0.387 -0.866,-0.745 -1.324,-1.089 z"
         fill="#aa5e0b"
         id="path238" />
      <path
         d="m 39.25,328.13 c 0.032,-0.028 0.171,-0.039 0.434,-0.063 4.104,-0.722 38.938,-9.316 158.96,-105.09 118.43,-94.503 135.53,-133.04 135.53,-133.04 l 0.001,-0.002 c -0.21,-0.158 -0.421,-0.316 -0.639,-0.465 -2.473,5.146 -20.732,35.626 -138.2,129.36 -121.85,97.233 -152.42,105.99 -157.59,106.76 0.409,0.915 0.864,1.779 1.359,2.594 l 0.144,-0.053 z"
         fill="#3f1c04"
         id="path240" />
      <path
         d="m 123.2,272.89 5.184,6.496 c 0,0 34.241,-24.241 72.126,-54.069 36.544,-28.772 68.246,-58.931 68.246,-58.931 l -4.703,-5.894 c 0,0 -44.959,40.015 -68.72,58.336 C 171.572,237.149 123.2,272.89 123.2,272.89 Z"
         fill="#ffffff"
         id="path242" />
      <path
         d="m 120.78,256.89 c -0.845,-0.942 -2.862,-0.627 -4.575,0.739 -1.713,1.366 -2.467,3.264 -1.736,4.297 l -0.01,0.008 23.414,29.342 c 0.811,1.016 2.885,0.708 4.633,-0.688 1.748,-1.395 2.509,-3.349 1.698,-4.364 l 0.014,-0.011 -23.415,-29.342 z"
         opacity="0.59"
         id="path244" />
      <path
         d="m 119.31,257.22 c -0.832,-0.938 -2.706,-0.725 -4.25,0.507 -1.544,1.232 -2.167,3.012 -1.438,4.032 l -0.009,0.007 23.209,29.085 c 0.804,1.007 2.731,0.803 4.306,-0.454 1.576,-1.258 2.202,-3.092 1.399,-4.099 l 0.012,-0.01 -23.209,-29.084 z"
         fill="#ffffff"
         id="path246" />
      <path
         d="m 140.74,243.84 c -0.845,-0.941 -2.862,-0.627 -4.574,0.739 -1.713,1.366 -2.468,3.264 -1.736,4.297 l -0.01,0.008 23.416,29.343 c 0.81,1.016 2.884,0.708 4.632,-0.688 1.748,-1.395 2.508,-3.349 1.698,-4.363 l 0.013,-0.011 -23.416,-29.344 z"
         opacity="0.59"
         id="path248" />
      <path
         d="m 139.13,244.24 c -0.832,-0.938 -2.706,-0.726 -4.25,0.506 -1.544,1.232 -2.167,3.013 -1.438,4.032 l -0.009,0.008 23.209,29.084 c 0.804,1.007 2.731,0.803 4.306,-0.453 1.576,-1.258 2.203,-3.093 1.399,-4.1 l 0.011,-0.009 -23.209,-29.085 z"
         fill="#ffffff"
         id="path250" />
      <path
         d="m 160.66,228.3 c -0.845,-0.942 -2.862,-0.627 -4.575,0.739 -1.713,1.366 -2.466,3.264 -1.736,4.297 l -0.01,0.008 23.416,29.343 c 0.81,1.016 2.884,0.708 4.632,-0.688 1.748,-1.395 2.509,-3.35 1.699,-4.364 l 0.013,-0.011 -23.416,-29.343 z"
         opacity="0.59"
         id="path252" />
      <path
         d="m 158.9,228.78 c -0.832,-0.938 -2.706,-0.725 -4.25,0.507 -1.543,1.231 -2.166,3.012 -1.436,4.031 l -0.01,0.008 23.209,29.084 c 0.803,1.007 2.73,0.804 4.306,-0.454 1.576,-1.257 2.203,-3.092 1.399,-4.099 l 0.012,-0.01 -23.209,-29.085 z"
         fill="#ffffff"
         id="path254" />
      <path
         d="m 180.57,212.76 c -0.846,-0.943 -2.861,-0.627 -4.573,0.739 -1.713,1.367 -2.468,3.264 -1.737,4.296 l -0.01,0.008 23.416,29.344 c 0.811,1.015 2.885,0.708 4.633,-0.688 1.748,-1.395 2.508,-3.349 1.698,-4.364 l 0.013,-0.011 -23.416,-29.344 z"
         opacity="0.59"
         id="path256" />
      <path
         d="m 178.68,213.31 c -0.832,-0.938 -2.707,-0.725 -4.25,0.507 -1.543,1.232 -2.166,3.012 -1.436,4.031 l -0.009,0.008 23.209,29.084 c 0.803,1.007 2.729,0.804 4.306,-0.453 1.576,-1.258 2.202,-3.092 1.399,-4.099 l 0.012,-0.011 -23.209,-29.084 z"
         fill="#ffffff"
         id="path258" />
      <path
         d="m 200.18,196.86 c -0.845,-0.942 -2.862,-0.627 -4.574,0.739 -1.713,1.367 -2.468,3.266 -1.736,4.297 l -0.01,0.008 23.415,29.343 c 0.811,1.016 2.884,0.708 4.633,-0.688 1.747,-1.395 2.509,-3.35 1.698,-4.364 l 0.014,-0.012 -23.415,-29.342 z"
         opacity="0.59"
         id="path260" />
      <path
         d="m 198.15,197.48 c -0.833,-0.938 -2.708,-0.726 -4.251,0.506 -1.544,1.232 -2.167,3.012 -1.437,4.032 l -0.009,0.008 23.208,29.083 c 0.804,1.007 2.731,0.805 4.307,-0.452 1.574,-1.257 2.202,-3.093 1.398,-4.1 l 0.013,-0.01 -23.209,-29.084 z"
         fill="#ffffff"
         id="path262" />
      <path
         d="m 219.41,180.48 c -0.845,-0.943 -2.861,-0.627 -4.574,0.74 -1.712,1.366 -2.466,3.263 -1.736,4.296 l -0.009,0.008 23.415,29.344 c 0.811,1.015 2.884,0.707 4.632,-0.688 1.749,-1.396 2.51,-3.35 1.699,-4.365 l 0.013,-0.01 -23.415,-29.344 z"
         opacity="0.59"
         id="path264" />
      <path
         d="m 217.23,181.17 c -0.832,-0.937 -2.707,-0.724 -4.25,0.508 -1.544,1.231 -2.167,3.012 -1.437,4.03 l -0.009,0.008 23.209,29.084 c 0.804,1.007 2.73,0.804 4.305,-0.452 1.575,-1.257 2.202,-3.092 1.398,-4.099 l 0.014,-0.011 -23.21,-29.084 z"
         fill="#ffffff"
         id="path266" />
      <path
         d="m 238.64,164.1 c -0.845,-0.942 -2.861,-0.626 -4.573,0.739 -1.712,1.367 -2.468,3.264 -1.736,4.296 l -0.012,0.01 23.416,29.343 c 0.81,1.016 2.884,0.707 4.634,-0.688 1.747,-1.395 2.508,-3.349 1.698,-4.364 l 0.014,-0.011 -23.416,-29.343 z"
         opacity="0.59"
         id="path268" />
      <path
         d="m 236.32,164.87 c -0.832,-0.938 -2.707,-0.724 -4.25,0.508 -1.544,1.231 -2.167,3.012 -1.437,4.03 l -0.009,0.008 23.209,29.084 c 0.803,1.007 2.73,0.804 4.305,-0.452 1.575,-1.257 2.202,-3.092 1.398,-4.099 l 0.013,-0.011 -23.209,-29.084 z"
         fill="#ffffff"
         id="path270" />
      <path
         d="m 257.86,147.73 c -0.846,-0.942 -2.862,-0.627 -4.574,0.739 -1.713,1.367 -2.468,3.264 -1.736,4.297 l -0.011,0.008 23.416,29.344 c 0.81,1.016 2.884,0.708 4.633,-0.688 1.748,-1.395 2.508,-3.349 1.698,-4.363 l 0.015,-0.012 -23.416,-29.343 z"
         opacity="0.59"
         id="path272" />
      <path
         d="m 255.4,148.56 c -0.833,-0.937 -2.707,-0.724 -4.251,0.508 -1.544,1.232 -2.166,3.011 -1.437,4.031 l -0.01,0.008 23.209,29.085 c 0.803,1.006 2.731,0.803 4.306,-0.454 1.576,-1.257 2.202,-3.093 1.399,-4.099 l 0.013,-0.01 -23.209,-29.084 z"
         fill="#ffffff"
         id="path274" />
    </g>
  </g>
</svg>
